<svg xmlns="http://www.w3.org/2000/svg" viewBox="0 0 100 30"><path d="M14.2 11.3c-2.4 0-4.1.8-5 1.7V11.5H4.8v16.1h4.4v-1.9c.9.9 2.6 2.1 5 2.1 4.5 0 7.3-3.9 7.3-8.4 0-4.3-2.7-8.1-7.3-8.1zm-1 12.3c-2.3 0-4-1.8-4-4.2 0-2.3 1.7-4.1 4-4.1 2.3 0 4 1.8 4 4.1.1 2.5-1.7 4.2-4 4.2zm19.7-12.3c-2.4 0-4 1-5.1 2.1v-1.9H23.4v16.1h4.4v-8.7c0-2.3 1.2-3.8 3.3-3.8 2.1 0 3.3 1.5 3.3 3.8v8.7h4.4V19.4c0-4.3-2.6-8.1-5.9-8.1zm20.8 0c-4.5 0-7.7 3.6-7.7 8.1 0 4.5 3.3 8.1 7.7 8.1 4.5 0 7.7-3.6 7.7-8.1 0-4.5-3.2-8.1-7.7-8.1zm0 12.2c-2 0-3.3-1.8-3.3-4.1 0-2.3 1.3-4.1 3.3-4.1s3.3 1.8 3.3 4.1c.1 2.3-1.3 4.1-3.3 4.1zm18 -12.2c-2.3 0-4 1-5.1 2.1v-1.9h-4.4v16.1h4.4v-8.7c0-2.3 1.2-3.8 3.3-3.8 2.1 0 3.3 1.5 3.3 3.8v8.7h4.4V19.4c0-4.3-2.6-8.1-5.9-8.1zm13 -6.3h-4.4v22.4h4.4z"/><path d="M5.5 28.5c11.2 5.3 27.2 8.1 38.4 8.1 14.8 0 28.9-3.7 39.7-10.3.9-.6.7-1.4-.2-1l-.6.3c-10.3 5.3-22.9 8.2-37.5 8.2-11.4 0-24.3-2.5-35.1-6.4-.9-.3-1.7.5-.7 1.1z"/></svg>
