<svg xmlns="http://www.w3.org/2000/svg" viewBox="0 0 48 48"><path fill="#EA4335" d="M24 9.5c3.54 0 6.71 1.22 9.21 3.6l6.85-6.85C35.9 2.38 30.47 0 24 0 14.62 0 6.51 5.38 2.56 13.22l7.98 6.19C12.43 13.72 17.74 9.5 24 9.5z"/><path fill="#4285F4" d="M46.64 24.55c0-1.65-.15-3.23-.42-4.75H24v9.01h12.72c-.55 2.85-2.15 5.27-4.57 6.9l7.1 5.51C43.37 35.84 46.64 30.76 46.64 24.55z"/><path fill="#FBBC05" d="M10.54 28.59c-.48-1.45-.76-2.99-.76-4.59s.27-3.14.76-4.59l-7.98-6.19C.92 16.46 0 20.12 0 24s.92 7.54 2.56 10.78l7.98-6.19z"/><path fill="#34A853" d="M24 48c6.48 0 11.93-2.13 15.89-5.81l-7.1-5.51c-2.2 1.48-5.01 2.32-8.79 2.32-6.26 0-11.57-4.22-13.46-9.86l-7.98 6.19C6.51 42.62 14.62 48 24 48z"/><path fill="none" d="M0 0h48v48H0z"/></svg>
